<?xml version="1.0" encoding="UTF-8"?>
<svg width="200px" height="117px" viewBox="0 0 200 117" version="1.1" xmlns="http://www.w3.org/2000/svg" xmlns:xlink="http://www.w3.org/1999/xlink">
    <title>Path 11</title>
    <g id="Big-Beef-Logo" stroke="none" stroke-width="1" fill="none" fill-rule="evenodd">
        <g id="Artboard" transform="translate(0.000000, -42.000000)" stroke="#D71921" stroke-width="3">
            <path d="M5.10776435,90.1163868 C9.3885939,90.1163868 28.3941017,90.1163868 62.1242877,90.1163868 C62.495999,90.1164185 62.8370359,90.3226011 63.0097526,90.6517489 L78.5842568,120.332233 L78.5842568,120.332233 C97.3524998,83.146404 109.236064,60.1583598 114.23495,51.3681003 C121.733278,38.1827111 130.421228,45.578877 133.501235,51.3681003 C135.554574,55.2275825 142.067003,68.143678 153.038521,90.1163868 C171.753133,90.1163868 184.352667,90.1163868 190.837125,90.1163868 C200.563811,90.1163868 202.161998,111.655495 190.837125,111.655495 C183.287209,111.655495 166.114972,111.655495 139.320414,111.655495 L123.907015,81.3981765 C103.786719,122.271299 92.163113,145.430173 89.0361964,150.874797 C84.3458214,159.041734 72.7387367,159.041734 68.7604653,150.874797 C66.1082844,145.430173 59.8129792,132.357072 49.8745499,111.655495 C24.7982874,111.655495 9.87602557,111.655495 5.10776435,111.655495 C-2.04462748,111.655495 -1.35174268,90.1163868 5.10776435,90.1163868 Z" id="Path-11"></path>
        </g>
    </g>
</svg>