<?xml version="1.0" encoding="UTF-8"?>
<svg width="200px" height="150px" viewBox="0 0 200 150" version="1.1" xmlns="http://www.w3.org/2000/svg" xmlns:xlink="http://www.w3.org/1999/xlink">
    <title>Shape</title>
    <g id="Big-Beef-Logo" stroke="none" stroke-width="1" fill="none" fill-rule="evenodd">
        <g id="Artboard" fill-rule="nonzero" stroke="#D71921" stroke-width="3">
            <g id="chart-bar-regular">
                <path d="M155,112.5 L163.75,112.5 C166.25,112.5 168.75,110 168.75,107.5 L168.75,17.5 C168.75,15 166.25,12.5 163.75,12.5 L155,12.5 C152.5,12.5 150,15 150,17.5 L150,107.5 C150,110 152.5,112.5 155,112.5 Z M80,112.5 L88.75,112.5 C91.25,112.5 93.75,110 93.75,107.5 L93.75,30 C93.75,27.5 91.25,25 88.75,25 L80,25 C77.5,25 75,27.5 75,30 L75,107.5 C75,110 77.5,112.5 80,112.5 L80,112.5 Z M117.5,112.5 L126.25,112.5 C128.75,112.5 131.25,110 131.25,107.5 L131.25,55 C131.25,52.5 128.75,50 126.25,50 L117.5,50 C115,50 112.5,52.5 112.5,55 L112.5,107.5 C112.5,110 115,112.5 117.5,112.5 L117.5,112.5 Z M193.75,131.25 L18.75,131.25 L18.75,6.25 C18.75,2.796875 15.953125,0 12.5,0 L6.25,0 C2.796875,0 0,2.796875 0,6.25 L0,137.5 C0,144.402344 5.59765625,150 12.5,150 L193.75,150 C197.203125,150 200,147.203125 200,143.75 L200,137.5 C200,134.046875 197.203125,131.25 193.75,131.25 Z M42.5,112.5 L51.25,112.5 C53.75,112.5 56.25,110 56.25,107.5 L56.25,80 C56.25,77.5 53.75,75 51.25,75 L42.5,75 C40,75 37.5,77.5 37.5,80 L37.5,107.5 C37.5,110 40,112.5 42.5,112.5 L42.5,112.5 Z" id="Shape"></path>
            </g>
        </g>
    </g>
</svg>